<svg xmlns="http://www.w3.org/2000/svg" version="1.1" xmlns:xlink="http://www.w3.org/1999/xlink" xmlns:svgjs="http://svgjs.dev/svgjs" width="1500" height="935" viewBox="0 0 1500 935"><g transform="matrix(1,0,0,1,-0.9090909090909918,0.3785425101214628)"><svg viewBox="0 0 396 247" data-background-color="#ffffff" preserveAspectRatio="xMidYMid meet" height="935" width="1500" xmlns="http://www.w3.org/2000/svg" xmlns:xlink="http://www.w3.org/1999/xlink"><g id="tight-bounds" transform="matrix(1,0,0,1,0.2400000000000091,-0.09999999999999432)"><svg viewBox="0 0 395.52 247.2" height="247.2" width="395.52"><g><svg></svg></g><g><svg viewBox="0 0 395.52 247.2" height="247.2" width="395.52"><g transform="matrix(1,0,0,1,75.54432,89.11883657358766)"><svg viewBox="0 0 244.43135999999998 68.96232685282467" height="68.96232685282467" width="244.43135999999998"><g><svg viewBox="0 0 244.43135999999998 68.96232685282467" height="68.96232685282467" width="244.43135999999998"><g><svg viewBox="0 0 244.43135999999998 68.96232685282467" height="68.96232685282467" width="244.43135999999998"><g><svg viewBox="0 0 244.43135999999998 68.96232685282467" height="68.96232685282467" width="244.43135999999998"><g id="textblocktransform"><svg viewBox="0 0 244.43135999999998 68.96232685282467" height="68.96232685282467" width="244.43135999999998" id="textblock"><g><svg viewBox="0 0 244.43135999999998 37.19498383713756" height="37.19498383713756" width="244.43135999999998"><g transform="matrix(1,0,0,1,0,0)"><svg width="244.43135999999998" viewBox="0.55 -36.5 243.13 37" height="37.19498383713756" data-palette-color="#4790fc"><path d="M27.3-4.35L36.25-26.1 40.5-26.1 29.4 0 25.55 0 20.5-12.3 15.5 0 11.65 0 0.55-26.1 4.75-26.1 13.75-4.35 17.95-15.05 13.55-26.05 17.4-26.05 20.5-17.75 23.6-26.05 27.45-26.05 23.1-15.05 27.3-4.35ZM55.25 0.5L55.25 0.5Q52.3 0.5 49.87-0.58 47.45-1.65 45.67-3.53 43.9-5.4 42.92-7.85 41.95-10.3 41.95-13.05L41.95-13.05Q41.95-16.75 43.65-19.8 45.35-22.85 48.37-24.7 51.4-26.55 55.3-26.55L55.3-26.55Q59.25-26.55 62.17-24.68 65.1-22.8 66.72-19.78 68.35-16.75 68.35-13.25L68.35-13.25Q68.35-12.75 68.32-12.28 68.3-11.8 68.25-11.55L68.25-11.55 46.6-11.55Q46.8-9 48.02-7.03 49.25-5.05 51.2-3.93 53.15-2.8 55.4-2.8L55.4-2.8Q57.8-2.8 59.92-4 62.05-5.2 62.85-7.15L62.85-7.15 66.65-6.1Q65.8-4.2 64.12-2.7 62.45-1.2 60.17-0.35 57.9 0.5 55.25 0.5ZM46.45-14.6L46.45-14.6 64.25-14.6Q64.05-17.15 62.8-19.1 61.55-21.05 59.6-22.15 57.65-23.25 55.3-23.25L55.3-23.25Q53-23.25 51.05-22.15 49.1-21.05 47.87-19.1 46.65-17.15 46.45-14.6ZM86.65 0.5L86.65 0.5Q83.6 0.5 81.1-1 78.6-2.5 77.15-4.9L77.15-4.9 77.15 0 73.25 0 73.25-36.5 77.65-36.5 77.65-20.9Q79.3-23.45 81.7-25 84.1-26.55 87.3-26.55L87.3-26.55Q90-26.55 92.15-25.43 94.3-24.3 95.82-22.38 97.35-20.45 98.17-18.03 99-15.6 99-12.95L99-12.95Q99-10.2 98.07-7.78 97.15-5.35 95.45-3.48 93.75-1.6 91.52-0.55 89.3 0.5 86.65 0.5ZM85.55-3.3L85.55-3.3Q87.5-3.3 89.15-4.1 90.8-4.9 92-6.25 93.2-7.6 93.85-9.35 94.5-11.1 94.5-12.95L94.5-12.95Q94.5-15.5 93.42-17.75 92.35-20 90.42-21.38 88.5-22.75 85.95-22.75L85.95-22.75Q84.1-22.75 82.5-21.9 80.9-21.05 79.67-19.68 78.45-18.3 77.65-16.65L77.65-16.65 77.65-9.1Q77.9-7.85 78.7-6.8 79.5-5.75 80.65-4.98 81.8-4.2 83.07-3.75 84.35-3.3 85.55-3.3ZM139.39-4.35L148.34-26.1 152.59-26.1 141.49 0 137.64 0 132.59-12.3 127.59 0 123.74 0 112.64-26.1 116.84-26.1 125.84-4.35 130.04-15.05 125.64-26.05 129.49-26.05 132.59-17.75 135.69-26.05 139.54-26.05 135.19-15.05 139.39-4.35ZM167.19 0.5L167.19 0.5Q164.24 0.5 161.84-0.58 159.44-1.65 157.69-3.53 155.94-5.4 154.99-7.85 154.04-10.3 154.04-13L154.04-13Q154.04-15.75 154.99-18.2 155.94-20.65 157.69-22.53 159.44-24.4 161.86-25.48 164.29-26.55 167.24-26.55L167.24-26.55Q170.14-26.55 172.54-25.48 174.94-24.4 176.71-22.53 178.49-20.65 179.44-18.2 180.39-15.75 180.39-13L180.39-13Q180.39-10.3 179.44-7.85 178.49-5.4 176.74-3.53 174.99-1.65 172.56-0.58 170.14 0.5 167.19 0.5ZM158.54-12.95L158.54-12.95Q158.54-10.25 159.71-8.05 160.89-5.85 162.84-4.58 164.79-3.3 167.19-3.3L167.19-3.3Q169.59-3.3 171.56-4.6 173.54-5.9 174.71-8.13 175.89-10.35 175.89-13.05L175.89-13.05Q175.89-15.75 174.71-17.95 173.54-20.15 171.56-21.45 169.59-22.75 167.19-22.75L167.19-22.75Q164.79-22.75 162.84-21.43 160.89-20.1 159.71-17.9 158.54-15.7 158.54-12.95ZM199.53-26.25L199.53-22.25Q196.24-22.2 193.71-20.58 191.19-18.95 190.13-16.1L190.13-16.1 190.13 0 185.74 0 185.74-26.1 189.84-26.1 189.84-20.05Q191.19-22.75 193.41-24.43 195.63-26.1 198.09-26.3L198.09-26.3Q198.59-26.3 198.94-26.3 199.28-26.3 199.53-26.25L199.53-26.25ZM203.98-5.15L203.98-36.5 208.38-36.5 208.38-6.75Q208.38-4.6 208.98-4.1 209.58-3.6 210.43-3.6L210.43-3.6Q211.48-3.6 212.43-3.83 213.38-4.05 214.03-4.3L214.03-4.3 214.73-0.7Q213.63-0.25 212.13 0.05 210.63 0.35 209.48 0.35L209.48 0.35Q206.93 0.35 205.46-1.1 203.98-2.55 203.98-5.15L203.98-5.15ZM216.48-13L216.48-13Q216.48-16.7 218.01-19.78 219.53-22.85 222.21-24.7 224.88-26.55 228.33-26.55L228.33-26.55Q231.48-26.55 233.98-24.9 236.48-23.25 237.88-20.9L237.88-20.9 237.88-36.5 242.28-36.5 242.28-5Q242.28-4.2 242.61-3.83 242.93-3.45 243.68-3.4L243.68-3.4 243.68 0Q242.43 0.2 241.73 0.2L241.73 0.2Q240.43 0.2 239.46-0.7 238.48-1.6 238.48-2.7L238.48-2.7 238.48-4.9Q236.93-2.4 234.33-0.95 231.73 0.5 228.93 0.5L228.93 0.5Q226.23 0.5 223.96-0.58 221.68-1.65 220.01-3.55 218.33-5.45 217.41-7.88 216.48-10.3 216.48-13ZM237.88-9.15L237.88-9.15 237.88-16.65Q237.28-18.35 235.93-19.73 234.58-21.1 232.91-21.93 231.23-22.75 229.58-22.75L229.58-22.75Q227.63-22.75 226.06-21.93 224.48-21.1 223.36-19.73 222.23-18.35 221.63-16.6 221.03-14.85 221.03-12.95L221.03-12.95Q221.03-11 221.71-9.25 222.38-7.5 223.61-6.15 224.83-4.8 226.46-4.05 228.08-3.3 229.98-3.3L229.98-3.3Q231.18-3.3 232.46-3.75 233.73-4.2 234.88-5 236.03-5.8 236.83-6.88 237.63-7.95 237.88-9.15Z" opacity="1" transform="matrix(1,0,0,1,0,0)" fill="#4790fc" class="wordmark-text-0" data-fill-palette-color="primary" id="text-0"></path></svg></g></svg></g><g transform="matrix(1,0,0,1,0,45.97582684147365)"><svg viewBox="0 0 244.43135999999998 22.986500011351016" height="22.986500011351016" width="244.43135999999998"><g transform="matrix(1,0,0,1,0,0)"><svg width="244.43135999999998" viewBox="0 -38.15 551.36 51.849999999999994" height="22.986500011351016" data-palette-color="#001042"><path d="M27.9-34.65L27.9-34.65 27.85-34Q25.95-19.4 25.35-16L25.35-16Q24.35-10.4 24.35-7.48 24.35-4.55 26.85-4.55L26.85-4.55Q28.95-4.55 30.6-7.58 32.25-10.6 33.1-15.1L33.1-15.1Q34.85-24.5 34.85-31.35L34.85-31.35Q34.85-34.55 34.3-36.9L34.3-36.9Q36.3-38.1 39.1-38.1 41.9-38.1 41.9-34.8L41.9-34.8Q41.9-29.65 40.3-19.15L40.3-19.15Q39-10.4 36.7-6.3L36.7-6.3Q35.65-4.55 34.3-2.95L34.3-2.95Q31.5 0.3 26.48 0.3 21.45 0.3 19.3-4L19.3-4Q16.55 0.3 10.95 0.3L10.95 0.3Q7.35 0.3 5.38-1.78 3.4-3.85 3.4-7.3L3.4-7.3Q3.4-7.75 3.5-8.65L3.5-8.65 5.35-22.75Q0-26.6 0-31.4L0-31.4Q0-34.45 2.1-36.25 4.2-38.05 7.2-38.05L7.2-38.05Q13.75-38.05 13.75-31.55L13.75-31.55Q13.75-31.45 13.73-31.3 13.7-31.15 13.68-30.83 13.65-30.5 13.58-30.08 13.5-29.65 13.38-28.8 13.25-27.95 13.1-26.93 12.95-25.9 12.7-24.2 12.45-22.5 12.18-20.53 11.9-18.55 11.5-15.7 11.1-12.85 10.8-10.85 10.5-8.85 10.5-7.95L10.5-7.95Q10.5-4.6 13.1-4.6L13.1-4.6Q16.7-4.6 17.55-11.15L17.55-11.15 20.75-36.4Q22.4-37.15 24.7-37.15L24.7-37.15Q27.9-37.15 27.9-34.65ZM5.25-34.05L5.25-34.05Q4.3-34.05 3.85-33.35 3.4-32.65 3.4-31.75L3.4-31.75Q3.4-29.5 5.9-27.1L5.9-27.1 6.15-29.1Q6.35-30.75 6.38-32.4 6.4-34.05 5.25-34.05ZM53.52-11.2Q56.62-11.85 58.15-13.7 59.67-15.55 59.67-17.28 59.67-19 58.75-19.63 57.82-20.25 56.72-20.25L56.72-20.25Q54.37-20.25 52.6-17.63 50.82-15 50.82-11.38 50.82-7.75 52.55-5.98 54.27-4.2 56.82-4.2L56.82-4.2Q60.57-4.2 64.02-6.8 67.47-9.4 69.62-13.6L69.62-13.6Q70.72-12.55 71.62-11L71.62-11Q69.97-7.25 65.77-3.65L65.77-3.65Q63.67-1.9 60.8-0.8 57.92 0.3 54.87 0.3L54.87 0.3Q49.87 0.3 46.97-2.75L46.97-2.75Q43.87-6.05 43.87-11.2 43.87-16.35 47.75-20.2 51.62-24.05 57.02-24.05L57.02-24.05Q60.87-24.05 63.27-22.38 65.67-20.7 65.72-17.85L65.72-17.85Q65.72-14 62.65-11.6 59.57-9.2 54.22-8.25L54.22-8.25 53.52-11.2ZM86.47-24.1L86.47-24.1Q89.72-24.1 90.27-22.45L90.27-22.45Q92.62-24.1 96.22-24.1 99.82-24.1 102.42-21.15 105.02-18.2 105.02-14.25L105.02-14.25Q105.02-13.7 104.97-13.1L104.97-13.1Q104.42-6.55 100.57-3.13 96.72 0.3 90.52 0.3L90.52 0.3Q89.12 0.3 87.47-0.05L87.47-0.05 85.87 13.7 79.32 13.7Q82.52-13.85 83.62-23.7L83.62-23.7Q84.67-24.1 86.47-24.1ZM97.97-13.9L97.97-13.9Q97.97-16.1 96.97-17.8 95.97-19.5 93.87-19.5L93.87-19.5Q91.02-19.5 89.52-15.8L89.52-15.8Q88.52-8.4 88.37-7.2L88.37-7.2Q88.32-5.7 89.32-4.95 90.32-4.2 91.77-4.2L91.77-4.2Q94.32-4.2 95.97-6.5L95.97-6.5Q97.97-9.35 97.97-13.9ZM123.39-17.5L123.39-17.5Q123.39-19.7 121.36-19.7 119.34-19.7 118.14-17.1L118.14-17.1Q123.54-12.85 123.54-7.55L123.54-7.55Q123.54-3.7 121.39-1.7 119.24 0.3 115.99 0.3 112.74 0.3 111.24-1.73 109.74-3.75 109.74-6.85L109.74-6.85Q109.74-7.8 109.79-8.25L109.79-8.25 111.54-23.5Q113.34-24.05 115.19-24.05L115.19-24.05Q118.24-24.05 118.24-21.8L118.24-21.8 118.24-21.7Q120.24-24.05 123.34-24.05L123.34-24.05Q125.59-24.05 126.84-23.03 128.09-22 128.09-20.3 128.09-18.6 126.81-17.53 125.54-16.45 123.49-16.45L123.49-16.45Q123.39-16.45 123.29-16.45L123.29-16.45Q123.39-17 123.39-17.5ZM120.29-7.8Q120.29-10.7 117.29-13.6L117.29-13.6Q116.39-6.4 116.39-6.35L116.39-6.35Q116.39-4.25 118.09-4.25L118.09-4.25Q120.29-4.25 120.29-7.8L120.29-7.8ZM143.56-24.05L143.56-24.05Q148.16-24.05 151.24-21.1 154.31-18.15 154.31-13.9L154.31-13.9Q154.31-7.45 150.54-3.58 146.76 0.3 141.41 0.3 136.06 0.3 132.94-2.75 129.81-5.8 129.81-10.3L129.81-10.3Q129.81-16.6 133.66-20.3L133.66-20.3Q137.56-24.05 143.56-24.05ZM142.59-20Q140.21-20 138.61-17.3 137.01-14.6 136.86-10.5L136.86-10.5Q136.86-7.6 138.04-5.7 139.21-3.8 141.61-3.8 144.01-3.8 145.64-6.45 147.26-9.1 147.26-12.5 147.26-15.9 146.11-17.9L146.11-17.9Q144.96-20 142.59-20ZM176.51-8.95Q174.93-4.9 172.01-2.33 169.08 0.25 165.33 0.25 161.58 0.25 159.71-2.23 157.83-4.7 157.83-7.9L157.83-7.9Q157.83-8.55 157.88-9.2L157.88-9.2 159.58-23.45Q161.18-24.05 162.98-24.05L162.98-24.05Q166.28-24.05 166.28-21.6L166.28-21.6Q166.28-21.5 165.46-14.93 164.63-8.35 164.63-7.3L164.63-7.3Q164.63-4.45 167.38-4.45L167.38-4.45Q169.73-4.45 171.33-7.1L171.33-7.1Q174.13-11.9 174.28-17.95L174.28-17.95 173.83-17.95Q171.73-17.95 170.63-18.9L170.63-18.9Q169.38-20 169.38-21.55 169.38-23.1 170.33-24.05L170.33-24.05Q171.48-25.05 173.08-25.05L173.08-25.05Q176.88-25.05 177.83-21.1L177.83-21.1Q179.33-21.3 179.98-21.5L179.98-21.5 179.98-18.65 178.13-18.35 178.13-17.5Q178.08-13 176.51-8.95ZM172.23-21.55L172.23-21.55Q172.23-20.7 173.68-20.7L173.68-20.7Q173.83-20.7 173.98-20.7L173.98-20.7Q173.63-22.05 172.93-22.05 172.23-22.05 172.23-21.55ZM185.4-36.83Q186.55-38 188.2-38 189.85-38 191.03-36.83 192.2-35.65 192.2-34 192.2-32.35 191.03-31.2 189.85-30.05 188.2-30.05 186.55-30.05 185.4-31.2 184.25-32.35 184.25-34 184.25-35.65 185.4-36.83ZM183.35-22.15Q183.85-23.05 185.25-23.53 186.65-24 188.03-24 189.4-24 190.45-23.65L190.45-23.65Q188.5-8.6 188.5-8.45L188.5-8.45Q188.25-7.45 188.25-6.78 188.25-6.1 188.35-5.6L188.35-5.6Q188.55-4.3 190.18-4.3 191.8-4.3 193.18-6.43 194.55-8.55 195.25-11.25L195.25-11.25Q195.6-11.05 196.35-10.05 197.1-9.05 197.25-8.55L197.25-8.55Q196.25-4.55 193.85-2.1L193.85-2.1Q191.45 0.35 188.1 0.35 184.75 0.35 183.13-1.3 181.5-2.95 181.5-5.55L181.5-5.55Q181.5-6.1 181.55-6.7L181.55-6.7 183.35-22.15ZM213.48-36.05Q213.83-36.9 215.05-37.48 216.28-38.05 218-38.05 219.73-38.05 220.58-37.55L220.58-37.55Q220.08-33.65 218.98-25.3L218.98-25.3Q216.68-7.85 216.68-6.08 216.68-4.3 218.18-4.3L218.18-4.3Q219.48-4.3 220.88-5.93 222.28-7.55 223.43-11.25L223.43-11.25Q224.83-9.9 225.38-8.3L225.38-8.3Q223.58-2.35 219.73-0.6L219.73-0.6Q217.98 0.25 216.43 0.25L216.43 0.25Q211.98 0.25 210.48-2.95L210.48-2.95Q207.88 0.3 203.83 0.3 199.78 0.3 197-2.45 194.23-5.2 194.23-9.7L194.23-9.7Q194.23-16.25 198.08-20.15 201.93-24.05 207.83-24.05L207.83-24.05Q207.98-24.05 208.13-24.05L208.13-24.05Q210.18-24.05 211.98-23.45L211.98-23.45 213.48-36.05ZM208.58-20.15L208.58-20.15Q205.38-20.15 203.5-17.73 201.63-15.3 201.28-10.5L201.28-10.5Q201.23-10.05 201.23-9.65L201.23-9.65Q201.23-7.2 202.4-5.75 203.58-4.3 205.43-4.3L205.43-4.3Q208.58-4.3 210.18-8.75L210.18-8.75 211.48-19.5Q209.83-20.15 208.58-20.15ZM232.3-11.2Q235.4-11.85 236.92-13.7 238.45-15.55 238.45-17.28 238.45-19 237.52-19.63 236.6-20.25 235.5-20.25L235.5-20.25Q233.15-20.25 231.37-17.63 229.6-15 229.6-11.38 229.6-7.75 231.32-5.98 233.05-4.2 235.6-4.2L235.6-4.2Q239.35-4.2 242.8-6.8 246.25-9.4 248.4-13.6L248.4-13.6Q249.5-12.55 250.4-11L250.4-11Q248.75-7.25 244.55-3.65L244.55-3.65Q242.45-1.9 239.57-0.8 236.7 0.3 233.65 0.3L233.65 0.3Q228.65 0.3 225.75-2.75L225.75-2.75Q222.65-6.05 222.65-11.2 222.65-16.35 226.52-20.2 230.4-24.05 235.8-24.05L235.8-24.05Q239.65-24.05 242.05-22.38 244.45-20.7 244.5-17.85L244.5-17.85Q244.5-14 241.42-11.6 238.35-9.2 233-8.25L233-8.25 232.3-11.2ZM274.42-24.1Q277.99-24.1 280.59-21.15 283.19-18.2 283.19-14.25L283.19-14.25Q283.19-13.7 283.14-13.1L283.14-13.1Q282.59-6.55 278.74-3.13 274.89 0.3 268.69 0.3L268.69 0.3Q266.19 0.2 264.34-0.6 262.49-1.4 261.59-2.6L261.59-2.6Q259.89-4.8 259.89-6.53 259.89-8.25 260.39-12.1L260.39-12.1Q261.44-20 263.39-37.65L263.39-37.65Q264.44-38.05 266.19-38.05L266.19-38.05Q270.19-38.05 270.19-35.75L270.19-35.75 268.49-22.45Q270.84-24.1 274.42-24.1ZM266.64-6.88Q266.64-5.7 267.52-4.93 268.39-4.15 269.94-4.15L269.94-4.15Q272.49-4.15 274.14-6.5L274.14-6.5Q276.14-9.35 276.14-13.9L276.14-13.9Q276.14-16.1 275.14-17.8 274.14-19.5 272.04-19.5L272.04-19.5Q269.19-19.5 267.69-16.1L267.69-16.1 267.29-13.1Q266.64-8.05 266.64-6.88ZM295.86-11.2Q298.96-11.85 300.49-13.7 302.01-15.55 302.01-17.28 302.01-19 301.09-19.63 300.16-20.25 299.06-20.25L299.06-20.25Q296.71-20.25 294.94-17.63 293.16-15 293.16-11.38 293.16-7.75 294.89-5.98 296.61-4.2 299.16-4.2L299.16-4.2Q302.91-4.2 306.36-6.8 309.81-9.4 311.96-13.6L311.96-13.6Q313.06-12.55 313.96-11L313.96-11Q312.31-7.25 308.11-3.65L308.11-3.65Q306.01-1.9 303.14-0.8 300.26 0.3 297.21 0.3L297.21 0.3Q292.21 0.3 289.31-2.75L289.31-2.75Q286.21-6.05 286.21-11.2 286.21-16.35 290.09-20.2 293.96-24.05 299.36-24.05L299.36-24.05Q303.21-24.05 305.61-22.38 308.01-20.7 308.06-17.85L308.06-17.85Q308.06-14 304.99-11.6 301.91-9.2 296.56-8.25L296.56-8.25 295.86-11.2ZM331.94-15.3L331.94-15.3Q335.89-12.4 335.89-8.45 335.89-4.5 332.79-2.1 329.69 0.3 324.99 0.3L324.99 0.3Q321.94 0.3 319.91-1.23 317.89-2.75 317.89-5 317.89-7.25 319.39-8.58 320.89-9.9 323.14-10.2L323.14-10.2Q322.09-8.7 322.09-7.33 322.09-5.95 323.04-5.1L323.04-5.1Q323.99-4.25 325.44-4.25 326.89-4.25 327.84-5.33 328.79-6.4 328.79-7.8L328.79-7.8Q328.79-10.1 326.64-11.9L326.64-11.9Q325.34-12.95 323.84-13.88 322.34-14.8 322.24-14.85L322.24-14.85Q322.04-15 321.84-15.1L321.84-15.1Q320.94-14.05 319.24-12.23 317.54-10.4 316.54-9.3L316.54-9.3Q313.74-6.25 313.39-4.2L313.39-4.2Q313.29-3.8 313.29-2.68 313.29-1.55 313.96-0.35 314.64 0.85 315.59 1.45 316.54 2.05 317.46 2.43 318.39 2.8 319.06 2.95 319.74 3.1 319.74 3.15L319.74 3.15Q319.74 3.5 318.64 3.95L318.64 3.95Q316.59 4.7 314.36 4.7 312.14 4.7 310.04 3.1L310.04 3.1Q307.19 0.9 307.19-2.75L307.19-2.75Q307.19-5 308.34-7.2L308.34-7.2Q310.39-11.1 317.94-17.9L317.94-17.9Q316.09-19.75 316.09-21.85 316.09-23.95 317.66-25.4 319.24-26.85 321.39-26.85L321.39-26.85Q323.34-26.85 324.79-25.3L324.79-25.3Q325.74-24.25 325.74-22.65 325.74-21.05 324.69-19.05L324.69-19.05Q330.04-16.65 331.94-15.3ZM321.09-20.95L321.09-20.95Q322.29-22.2 322.29-22.75L322.29-22.75Q322.29-24 321.19-24.1L321.19-24.1Q319.94-24.1 319.94-22.7L319.94-22.7Q319.94-21.85 321.09-20.95ZM349.36-34.8L349.36-34.8Q349.36-34.5 348.01-24.05L348.01-24.05 355.36-24.05 355.36-20.2 347.51-20.2 347.36-18.95Q353.21-14.05 353.21-8.25L353.21-8.25Q353.21-3.7 350.88-1.7 348.56 0.3 345.31 0.3 342.06 0.3 340.56-1.43 339.06-3.15 339.06-5.6L339.06-5.6Q339.06-6.15 339.16-6.8L339.16-6.8 340.71-20.1 340.51-20.2 336.46-20.2Q336.41-20.7 336.41-21.83 336.41-22.95 336.86-24.05L336.86-24.05 341.16-24.05 342.76-37.65Q343.81-38.05 345.56-38.05L345.56-38.05Q349.36-38.05 349.36-34.8ZM349.86-8.3L349.86-8.3Q349.86-11.75 346.86-15.1L346.86-15.1Q345.96-7.65 345.96-6.5L345.96-6.5Q345.96-4.25 347.41-4.25L347.41-4.25Q348.46-4.25 349.16-5.23 349.86-6.2 349.86-8.3ZM391.7-25.2L387.95-25.2Q389.45-27.45 389.45-29.4 389.45-31.35 388.35-32.5 387.25-33.65 385.45-33.65 383.65-33.65 382.55-32.77 381.45-31.9 381.45-30.03 381.45-28.15 384.05-23.3 386.65-18.45 387.35-17.05L387.35-17.05Q389.25-13.25 389.25-9.7L389.25-9.7Q389.25-5.25 386.03-2.48 382.8 0.3 378.43 0.3 374.05 0.3 371.55-2.43 369.05-5.15 369.05-8.8L369.05-8.8Q369.05-15.55 377.4-19.95L377.4-19.95Q374-26.65 374-29.3L374-29.3Q374-33 376.98-35.58 379.95-38.15 384.28-38.15 388.6-38.15 390.9-35.95 393.2-33.75 393.2-30.35L393.2-30.35Q393.2-28.1 391.7-25.2L391.7-25.2ZM374.85-5.7Q376.2-4.25 378.13-4.25 380.05-4.25 381.13-5.38 382.2-6.5 382.2-8.7L382.2-8.7Q382.2-10.7 380.65-13.6L380.65-13.6Q380.45-14 379.9-15.08 379.35-16.15 379.1-16.6L379.1-16.6Q373.5-13.7 373.5-9.3L373.5-9.3Q373.5-7.05 374.85-5.7L374.85-5.7ZM403.62-11.2Q406.72-11.85 408.25-13.7 409.77-15.55 409.77-17.28 409.77-19 408.85-19.63 407.92-20.25 406.82-20.25L406.82-20.25Q404.47-20.25 402.7-17.63 400.92-15 400.92-11.38 400.92-7.75 402.65-5.98 404.37-4.2 406.92-4.2L406.92-4.2Q410.67-4.2 414.12-6.8 417.57-9.4 419.72-13.6L419.72-13.6Q420.82-12.55 421.72-11L421.72-11Q420.07-7.25 415.87-3.65L415.87-3.65Q413.77-1.9 410.9-0.8 408.02 0.3 404.97 0.3L404.97 0.3Q399.97 0.3 397.07-2.75L397.07-2.75Q393.97-6.05 393.97-11.2 393.97-16.35 397.85-20.2 401.72-24.05 407.12-24.05L407.12-24.05Q410.97-24.05 413.37-22.38 415.77-20.7 415.82-17.85L415.82-17.85Q415.82-14 412.75-11.6 409.67-9.2 404.32-8.25L404.32-8.25 403.62-11.2ZM433.6-17.5L433.6-17.5Q433.6-19.7 431.57-19.7 429.55-19.7 428.35-17.1L428.35-17.1Q433.75-12.85 433.75-7.55L433.75-7.55Q433.75-3.7 431.6-1.7 429.45 0.3 426.2 0.3 422.95 0.3 421.45-1.73 419.95-3.75 419.95-6.85L419.95-6.85Q419.95-7.8 420-8.25L420-8.25 421.75-23.5Q423.55-24.05 425.4-24.05L425.4-24.05Q428.45-24.05 428.45-21.8L428.45-21.8 428.45-21.7Q430.45-24.05 433.55-24.05L433.55-24.05Q435.8-24.05 437.05-23.03 438.3-22 438.3-20.3 438.3-18.6 437.02-17.53 435.75-16.45 433.7-16.45L433.7-16.45Q433.6-16.45 433.5-16.45L433.5-16.45Q433.6-17 433.6-17.5ZM430.5-7.8Q430.5-10.7 427.5-13.6L427.5-13.6Q426.6-6.4 426.6-6.35L426.6-6.35Q426.6-4.25 428.3-4.25L428.3-4.25Q430.5-4.25 430.5-7.8L430.5-7.8ZM459.49-8.95Q457.92-4.9 454.99-2.33 452.07 0.25 448.32 0.25 444.57 0.25 442.69-2.23 440.82-4.7 440.82-7.9L440.82-7.9Q440.82-8.55 440.87-9.2L440.87-9.2 442.57-23.45Q444.17-24.05 445.97-24.05L445.97-24.05Q449.27-24.05 449.27-21.6L449.27-21.6Q449.27-21.5 448.44-14.93 447.62-8.35 447.62-7.3L447.62-7.3Q447.62-4.45 450.37-4.45L450.37-4.45Q452.72-4.45 454.32-7.1L454.32-7.1Q457.12-11.9 457.27-17.95L457.27-17.95 456.82-17.95Q454.72-17.95 453.62-18.9L453.62-18.9Q452.37-20 452.37-21.55 452.37-23.1 453.32-24.05L453.32-24.05Q454.47-25.05 456.07-25.05L456.07-25.05Q459.87-25.05 460.82-21.1L460.82-21.1Q462.32-21.3 462.97-21.5L462.97-21.5 462.97-18.65 461.12-18.35 461.12-17.5Q461.07-13 459.49-8.95ZM455.22-21.55L455.22-21.55Q455.22-20.7 456.67-20.7L456.67-20.7Q456.82-20.7 456.97-20.7L456.97-20.7Q456.62-22.05 455.92-22.05 455.22-22.05 455.22-21.55ZM468.39-36.83Q469.54-38 471.19-38 472.84-38 474.02-36.83 475.19-35.65 475.19-34 475.19-32.35 474.02-31.2 472.84-30.05 471.19-30.05 469.54-30.05 468.39-31.2 467.24-32.35 467.24-34 467.24-35.65 468.39-36.83ZM466.34-22.15Q466.84-23.05 468.24-23.53 469.64-24 471.02-24 472.39-24 473.44-23.65L473.44-23.65Q471.49-8.6 471.49-8.45L471.49-8.45Q471.24-7.45 471.24-6.78 471.24-6.1 471.34-5.6L471.34-5.6Q471.54-4.3 473.17-4.3 474.79-4.3 476.17-6.43 477.54-8.55 478.24-11.25L478.24-11.25Q478.59-11.05 479.34-10.05 480.09-9.05 480.24-8.55L480.24-8.55Q479.24-4.55 476.84-2.1L476.84-2.1Q474.44 0.35 471.09 0.35 467.74 0.35 466.12-1.3 464.49-2.95 464.49-5.55L464.49-5.55Q464.49-6.1 464.54-6.7L464.54-6.7 466.34-22.15ZM493.01-16.95L493.01-16.95Q493.01-20.2 490.11-20.2L490.11-20.2Q487.96-20.2 486.26-17.75L486.26-17.75Q484.46-15.1 484.46-11.55 484.46-8 486.04-6.08 487.61-4.15 490.36-4.15L490.36-4.15Q493.66-4.15 497.34-6.85 501.01-9.55 503.26-13.55L503.26-13.55Q504.26-12.8 505.21-10.8L505.21-10.8Q503.76-7.9 499.81-4.3L499.81-4.3Q497.76-2.4 494.71-1.1L494.71-1.1Q491.41 0.3 488.11 0.3L488.11 0.3Q483.66 0.3 480.59-2.75 477.51-5.8 477.51-10.7L477.51-10.7Q477.51-16.65 481.51-20.35 485.51-24.05 490.46-24.05L490.46-24.05Q494.31-24.05 496.56-22.45 498.81-20.85 498.81-18.25L498.81-18.25Q498.81-16.55 497.61-15.3L497.61-15.3Q495.41-13.1 492.26-13.1L492.26-13.1Q493.01-15.6 493.01-16.95ZM511.33-11.2Q514.43-11.85 515.96-13.7 517.48-15.55 517.48-17.28 517.48-19 516.56-19.63 515.63-20.25 514.53-20.25L514.53-20.25Q512.18-20.25 510.41-17.63 508.63-15 508.63-11.38 508.63-7.75 510.36-5.98 512.08-4.2 514.63-4.2L514.63-4.2Q518.38-4.2 521.83-6.8 525.28-9.4 527.43-13.6L527.43-13.6Q528.53-12.55 529.43-11L529.43-11Q527.78-7.25 523.58-3.65L523.58-3.65Q521.48-1.9 518.61-0.8 515.73 0.3 512.68 0.3L512.68 0.3Q507.68 0.3 504.78-2.75L504.78-2.75Q501.68-6.05 501.68-11.2 501.68-16.35 505.56-20.2 509.43-24.05 514.83-24.05L514.83-24.05Q518.68-24.05 521.08-22.38 523.48-20.7 523.53-17.85L523.53-17.85Q523.53-14 520.46-11.6 517.38-9.2 512.03-8.25L512.03-8.25 511.33-11.2ZM547.41-15.3L547.41-15.3Q551.36-12.4 551.36-8.45 551.36-4.5 548.26-2.1 545.16 0.3 540.46 0.3L540.46 0.3Q537.41 0.3 535.38-1.23 533.36-2.75 533.36-5 533.36-7.25 534.86-8.58 536.36-9.9 538.61-10.2L538.61-10.2Q537.56-8.7 537.56-7.33 537.56-5.95 538.51-5.1L538.51-5.1Q539.46-4.25 540.91-4.25 542.36-4.25 543.31-5.33 544.26-6.4 544.26-7.8L544.26-7.8Q544.26-10.1 542.11-11.9L542.11-11.9Q540.81-12.95 539.31-13.88 537.81-14.8 537.71-14.85L537.71-14.85Q537.51-15 537.31-15.1L537.31-15.1Q536.41-14.05 534.71-12.23 533.01-10.4 532.01-9.3L532.01-9.3Q529.21-6.25 528.86-4.2L528.86-4.2Q528.76-3.8 528.76-2.68 528.76-1.55 529.43-0.35 530.11 0.85 531.06 1.45 532.01 2.05 532.93 2.43 533.86 2.8 534.53 2.95 535.21 3.1 535.21 3.15L535.21 3.15Q535.21 3.5 534.11 3.95L534.11 3.95Q532.06 4.7 529.83 4.7 527.61 4.7 525.51 3.1L525.51 3.1Q522.66 0.9 522.66-2.75L522.66-2.75Q522.66-5 523.81-7.2L523.81-7.2Q525.86-11.1 533.41-17.9L533.41-17.9Q531.56-19.75 531.56-21.85 531.56-23.95 533.13-25.4 534.71-26.85 536.86-26.85L536.86-26.85Q538.81-26.85 540.26-25.3L540.26-25.3Q541.21-24.25 541.21-22.65 541.21-21.05 540.16-19.05L540.16-19.05Q545.51-16.65 547.41-15.3ZM536.56-20.95L536.56-20.95Q537.76-22.2 537.76-22.75L537.76-22.75Q537.76-24 536.66-24.1L536.66-24.1Q535.41-24.1 535.41-22.7L535.41-22.7Q535.41-21.85 536.56-20.95Z" opacity="1" transform="matrix(1,0,0,1,0,0)" fill="#001042" class="slogan-text-1" data-fill-palette-color="secondary" id="text-1"></path></svg></g></svg></g></svg></g></svg></g></svg></g></svg></g></svg></g><g><path d="M0 123.6c0-68.262 55.338-123.6 123.6-123.6 54.682 0 101.071 35.51 117.364 84.728h-1.769c-16.228-48.276-61.85-83.051-115.595-83.051-67.336 0-121.923 54.587-121.923 121.923 0 67.336 54.587 121.923 121.923 121.923 53.745 0 99.368-34.775 115.595-83.051h1.769c-16.293 49.218-62.681 84.728-117.364 84.728-68.262 0-123.6-55.338-123.6-123.6z" fill="#4790fc" stroke="transparent" data-fill-palette-color="tertiary"></path></g></svg></g><defs></defs></svg><rect width="395.52" height="247.2" fill="none" stroke="none" visibility="hidden"></rect></g></svg></g></svg>