<svg xmlns="http://www.w3.org/2000/svg" version="1.1" xmlns:xlink="http://www.w3.org/1999/xlink" xmlns:svgjs="http://svgjs.dev/svgjs" width="1500" height="368" viewBox="0 0 1500 368"><g transform="matrix(1,0,0,1,-0.34600624375946154,0.6044877704185865)"><svg viewBox="0 0 322 79" data-background-color="#ffffff" preserveAspectRatio="xMidYMid meet" height="368" width="1500" xmlns="http://www.w3.org/2000/svg" xmlns:xlink="http://www.w3.org/1999/xlink"><g id="tight-bounds" transform="matrix(1,0,0,1,0.07427600699369918,-0.12976775506268723)"><svg viewBox="0 0 321.8514479860126 79.25953551012535" height="79.25953551012535" width="321.8514479860126"><g><svg viewBox="0 0 321.8514479860126 79.25953551012535" height="79.25953551012535" width="321.8514479860126"><g><svg viewBox="0 0 321.8514479860126 79.25953551012535" height="79.25953551012535" width="321.8514479860126"><g id="textblocktransform"><svg viewBox="0 0 321.8514479860126 79.25953551012535" height="79.25953551012535" width="321.8514479860126" id="textblock"><g><svg viewBox="0 0 321.8514479860126 60.1896" height="60.1896" width="321.8514479860126"><g><svg><g></g><g></g></svg></g><g><svg><g><svg></svg></g><g></g></svg></g><g id="text-0"><svg viewBox="0 0 321.8514479860126 60.1896" height="60.1896" width="321.8514479860126"><g transform="matrix(1,0,0,1,0,11.494799999999998)"><svg width="96.30000000000001" viewBox="0.95 -36.55 96.3 37.199999999999996" height="37.2" data-palette-color="#001dac"><path d="M42.6-35.25Q45.3-35.25 45.25-33.25L45.25-33.25Q45.25-32.55 44.75-30.75L44.75-30.75 36.2-0.1Q34.5 0.6 33.1 0.6L33.1 0.6Q32 0.6 31.28 0.23 30.55-0.15 30.35-0.85L30.35-0.85 23.5-25.65 16.3-0.1Q14.6 0.6 13.3 0.6L13.3 0.6Q10.65 0.6 10.3-0.85L10.3-0.85 2.2-31.8Q1.8-33.35 0.95-34.3L0.95-34.3Q1.9-35.35 3.7-35.35L3.7-35.35Q4.9-35.35 5.68-34.9 6.45-34.45 6.65-33.55L6.65-33.55 13.85-3.3 20.8-28.35Q20.95-29.05 20.95-29.6L20.95-29.6Q20.95-30.35 20.65-31.05L20.65-31.05Q21.3-31.4 22.23-31.6 23.15-31.8 23.85-31.8L23.85-31.8Q24.7-31.8 25.3-31.53 25.9-31.25 26.1-30.7L26.1-30.7 33.7-3.3 40.25-31.8Q40.3-32.05 40.43-32.6 40.55-33.15 40.55-33.55L40.55-33.55Q40.55-34.3 40.2-34.8L40.2-34.8Q41.35-35.25 42.6-35.25L42.6-35.25ZM69.05-6.6Q69.8-6.3 69.8-5.45L69.8-5.45Q69.8-4.9 69.45-4.05L69.45-4.05Q68.55-1.75 66.15-0.55 63.75 0.65 60.45 0.65L60.45 0.65Q54.9 0.65 51.72-2.8 48.55-6.25 48.55-12.65L48.55-12.65Q48.55-18.95 51.7-22.55 54.85-26.15 60.65-26.15L60.65-26.15Q64.85-26.15 67.42-24.25 70-22.35 70-18.85L70-18.85Q70-15.15 67-13.2 64-11.25 58.75-11.25L58.75-11.25Q56.1-11.25 53.45-11.55L53.45-11.55Q54.05-2.35 61.6-2.35L61.6-2.35Q64.3-2.35 66.27-3.48 68.25-4.6 69.05-6.6L69.05-6.6ZM60.45-24.25Q57.2-24.25 55.32-21.45 53.45-18.65 53.4-13.4L53.4-13.4Q54.45-13.3 56.75-13.2L56.75-13.2Q60.55-13.2 62.85-14.58 65.15-15.95 65.15-19.5L65.15-19.5Q65.15-22.1 63.8-23.18 62.45-24.25 60.45-24.25L60.45-24.25ZM85.8 0.65Q82.85 0.65 80.1-0.18 77.35-1 75.7-2.7L75.7-2.7 75.7-34.05Q75.7-35.2 76.37-35.88 77.05-36.55 78.15-36.55L78.15-36.55Q79.75-36.55 80.95-35.5L80.95-35.5Q80.25-32.7 80.25-27.55L80.25-27.55 80.2-20.1Q81.15-22.8 83.32-24.48 85.5-26.15 88.5-26.15L88.5-26.15Q92.7-26.15 94.97-23.15 97.25-20.15 97.25-13.8L97.25-13.8Q97.25-7.2 94.45-3.28 91.65 0.65 85.8 0.65L85.8 0.65ZM85.55-1.45Q89.55-1.55 91-5 92.45-8.45 92.45-13.85L92.45-13.85Q92.45-18.85 91.25-21.2 90.05-23.55 87.65-23.55L87.65-23.55Q85.1-23.55 83.42-21.8 81.75-20.05 80.97-17.35 80.2-14.65 80.2-11.8L80.2-11.8 80.2-3.25Q80.9-2.5 82.45-1.98 84-1.45 85.55-1.45L85.55-1.45Z" opacity="1" transform="matrix(1,0,0,1,0,0)" fill="#001dac" class="undefined-yy-0" data-fill-palette-color="primary"></path></svg></g><g><svg xmlns="http://www.w3.org/2000/svg" xmlns:xlink="http://www.w3.org/1999/xlink" version="1.1" x="110.51040000000002" y="0" viewBox="4.083999999999997 4.531 91.832 90.93900000000001" enable-background="new 0 0 100 100" xml:space="preserve" height="60.1896" width="60.780647986012596" class="icon-cg-0" data-fill-palette-color="accent" id="cg-0"><g fill="#001dac" data-fill-palette-color="accent"><path fill="none" d="M27.751 31.829v37.153c0 1.682 1.367 3.047 3.047 3.047h37.153c1.682 0 3.048-1.365 3.048-3.047V31.829c0-1.68-1.366-3.047-3.048-3.047H30.798C29.118 28.782 27.751 30.149 27.751 31.829zM40.021 45.799c0-2.358 1.912-4.271 4.27-4.271h10.168c2.357 0 4.27 1.912 4.27 4.271v9.215c0 2.358-1.912 4.271-4.27 4.271H44.291c-2.358 0-4.27-1.912-4.27-4.271V45.799z"></path><path d="M26.684 31.829v37.153c0 2.27 1.846 4.115 4.115 4.115h37.153c2.27 0 4.115-1.846 4.115-4.115V31.829c0-2.269-1.846-4.114-4.115-4.114H30.798C28.529 27.715 26.684 29.561 26.684 31.829zM70.999 31.829v37.153c0 1.682-1.366 3.047-3.048 3.047H30.798c-1.681 0-3.047-1.365-3.047-3.047V31.829c0-1.68 1.367-3.047 3.047-3.047h37.153C69.633 28.782 70.999 30.149 70.999 31.829z" fill="#001dac" data-fill-palette-color="accent"></path><path d="M44.291 59.284h10.168c2.357 0 4.27-1.912 4.27-4.271v-9.215c0-2.358-1.912-4.271-4.27-4.271H44.291c-2.358 0-4.27 1.912-4.27 4.271v9.215C40.021 57.372 41.933 59.284 44.291 59.284z" fill="#001dac" data-fill-palette-color="accent"></path><circle cx="35.146" cy="22.323" r="3.0" fill="#001dac" data-fill-palette-color="accent"></circle><path d="M53.896 25.323c1.657 0 3-1.344 3-3 0-1.486-1.082-2.71-2.5-2.95V8.51h17.446c0.244 1.682 1.679 2.979 3.429 2.979 1.921 0 3.479-1.558 3.479-3.479s-1.559-3.479-3.479-3.479c-1.75 0-3.185 1.297-3.429 2.979H53.396v11.863c-1.417 0.239-2.5 1.464-2.5 2.95C50.896 23.979 52.239 25.323 53.896 25.323z" fill="#001dac" data-fill-palette-color="accent"></path><path d="M44.479 75.489c-1.656 0-3 1.344-3 3 0 1.485 1.083 2.71 2.5 2.95V91.49h-1.925c-0.245-1.683-1.679-2.979-3.429-2.979-1.921 0-3.479 1.558-3.479 3.479 0 1.921 1.558 3.479 3.479 3.479 1.75 0 3.184-1.297 3.429-2.979h2.925V81.439c1.418-0.24 2.5-1.465 2.5-2.95C47.479 76.833 46.136 75.489 44.479 75.489z" fill="#001dac" data-fill-palette-color="accent"></path><path d="M74.208 36.947c0 1.656 1.344 3 3 3 1.485 0 2.71-1.083 2.95-2.5h1.518c0.244 1.683 1.678 2.979 3.428 2.979 1.922 0 3.479-1.558 3.479-3.479s-1.558-3.479-3.479-3.479c-1.75 0-3.184 1.296-3.428 2.979h-1.518c-0.24-1.418-1.465-2.5-2.95-2.5C75.552 33.947 74.208 35.29 74.208 36.947z" fill="#001dac" data-fill-palette-color="accent"></path><path d="M24.542 64.697c0-1.656-1.344-3-3-3-1.486 0-2.71 1.083-2.95 2.5h-2.122c-0.244-1.683-1.679-2.979-3.429-2.979-1.921 0-3.479 1.557-3.479 3.479s1.558 3.479 3.479 3.479c1.75 0 3.185-1.296 3.429-2.979h2.122c0.239 1.418 1.464 2.5 2.95 2.5C23.198 67.697 24.542 66.354 24.542 64.697z" fill="#001dac" data-fill-palette-color="accent"></path><path d="M25.021 11.489c1.75 0 3.184-1.297 3.429-2.979h6.196v10.813h0.5 0.5V7.51H28.45c-0.245-1.682-1.679-2.979-3.429-2.979-1.921 0-3.479 1.558-3.479 3.479S23.1 11.489 25.021 11.489z" fill="#001dac" data-fill-palette-color="accent"></path><path d="M43.979 11.439v7.935c-1.417 0.239-2.5 1.464-2.5 2.95 0 1.656 1.344 3 3 3 1.657 0 3-1.344 3-3 0-1.486-1.082-2.71-2.5-2.95v-7.935c1.683-0.245 2.979-1.679 2.979-3.429 0-1.921-1.558-3.479-3.479-3.479S41 6.089 41 8.01C41 9.76 42.296 11.194 43.979 11.439z" fill="#001dac" data-fill-palette-color="accent"></path><path d="M66.375 13.188c0-1.921-1.559-3.479-3.479-3.479s-3.479 1.558-3.479 3.479c0 1.75 1.297 3.184 2.979 3.429v2.757c-1.417 0.239-2.5 1.464-2.5 2.95 0 1.656 1.344 3 3 3 1.657 0 3-1.344 3-3 0-1.486-1.082-2.71-2.5-2.95v-2.757C65.078 16.372 66.375 14.938 66.375 13.188z" fill="#001dac" data-fill-palette-color="accent"></path><path d="M91.938 31.144V45.78H80.158c-0.24-1.417-1.465-2.5-2.95-2.5-1.656 0-3 1.344-3 3 0 1.657 1.344 3 3 3 1.485 0 2.71-1.082 2.95-2.5h12.779V31.144c1.682-0.244 2.979-1.679 2.979-3.429 0-1.921-1.558-3.479-3.479-3.479-1.922 0-3.479 1.558-3.479 3.479C88.958 29.465 90.255 30.899 91.938 31.144z" fill="#001dac" data-fill-palette-color="accent"></path><path d="M92.063 49.219c-1.75 0-3.185 1.296-3.43 2.979h-4.717v3h-3.758c-0.24-1.417-1.465-2.5-2.95-2.5-1.656 0-3 1.344-3 3 0 1.657 1.344 3 3 3 1.485 0 2.71-1.082 2.95-2.5h4.758v-3h3.717c0.245 1.683 1.68 2.979 3.43 2.979 1.921 0 3.479-1.557 3.479-3.479S93.983 49.219 92.063 49.219z" fill="#001dac" data-fill-palette-color="accent"></path><path d="M54.396 88.561v-7.121c1.418-0.24 2.5-1.465 2.5-2.95 0-1.656-1.343-3-3-3-1.656 0-3 1.344-3 3 0 1.485 1.083 2.71 2.5 2.95v7.121c-1.683 0.245-2.979 1.68-2.979 3.43 0 1.921 1.558 3.479 3.479 3.479s3.479-1.558 3.479-3.479C57.375 90.24 56.078 88.806 54.396 88.561z" fill="#001dac" data-fill-palette-color="accent"></path><path d="M71.729 83.511c-1.75 0-3.184 1.297-3.428 2.979h-4.905v-5.051c1.418-0.24 2.5-1.465 2.5-2.95 0-1.656-1.343-3-3-3-1.656 0-3 1.344-3 3 0 1.485 1.083 2.71 2.5 2.95v6.051h5.905c0.244 1.682 1.678 2.979 3.428 2.979 1.922 0 3.479-1.558 3.479-3.479C75.208 85.068 73.65 83.511 71.729 83.511z" fill="#001dac" data-fill-palette-color="accent"></path><path d="M91.396 68.344c-1.75 0-3.185 1.297-3.429 2.979h-4.092v-7.126h-3.717c-0.24-1.417-1.465-2.5-2.95-2.5-1.656 0-3 1.344-3 3 0 1.657 1.344 3 3 3 1.485 0 2.71-1.082 2.95-2.5h2.717v7.126h5.092c0.244 1.683 1.679 2.979 3.429 2.979 1.921 0 3.479-1.559 3.479-3.479S93.316 68.344 91.396 68.344z" fill="#001dac" data-fill-palette-color="accent"></path><path d="M8.396 31.194c1.75 0 3.185-1.296 3.429-2.979h0.717v9.232h6.05c0.239 1.417 1.464 2.5 2.95 2.5 1.656 0 3-1.344 3-3 0-1.657-1.344-3-3-3-1.486 0-2.71 1.082-2.95 2.5h-5.05v-9.232h-1.717c-0.244-1.683-1.679-2.979-3.429-2.979-1.921 0-3.479 1.558-3.479 3.479S6.475 31.194 8.396 31.194z" fill="#001dac" data-fill-palette-color="accent"></path><path d="M7.063 42.606v3.383h11.508c-0.009 0.097-0.029 0.191-0.029 0.291 0 1.657 1.343 3 3 3 1.656 0 3-1.343 3-3 0-1.656-1.344-3-3-3-1.193 0-2.214 0.701-2.697 1.709H8.063v-2.383c1.682-0.245 2.979-1.679 2.979-3.429 0-1.921-1.558-3.479-3.479-3.479s-3.479 1.558-3.479 3.479C4.084 40.927 5.381 42.361 7.063 42.606z" fill="#001dac" data-fill-palette-color="accent"></path><path d="M10.992 60.239h3.383v-4.333h4.188c0.109 1.558 1.394 2.791 2.979 2.791 1.656 0 3-1.343 3-3 0-1.656-1.344-3-3-3-1.381 0-2.532 0.939-2.881 2.209h-5.286v4.333h-2.383c-0.245-1.683-1.679-2.979-3.429-2.979-1.921 0-3.479 1.559-3.479 3.479s1.558 3.479 3.479 3.479C9.313 63.219 10.747 61.922 10.992 60.239z" fill="#001dac" data-fill-palette-color="accent"></path><path d="M35.646 81.439c1.417-0.24 2.5-1.465 2.5-2.95 0-1.656-1.344-3-3-3-1.657 0-3 1.344-3 3 0 1.485 1.082 2.71 2.5 2.95v3.029h-6.675c-0.244-1.683-1.679-2.979-3.429-2.979-1.921 0-3.479 1.558-3.479 3.479 0 1.921 1.558 3.479 3.479 3.479 1.75 0 3.185-1.297 3.429-2.979h7.675V81.439z" fill="#001dac" data-fill-palette-color="accent"></path></g></svg></g><g transform="matrix(1,0,0,1,185.5014479860126,11.494799999999998)"><svg width="136.35000000000002" viewBox="0.95 -36.55 136.34 37.199999999999996" height="37.2" data-palette-color="#d62828"><path d="M42.6-35.25Q45.3-35.25 45.25-33.25L45.25-33.25Q45.25-32.55 44.75-30.75L44.75-30.75 36.2-0.1Q34.5 0.6 33.1 0.6L33.1 0.6Q32 0.6 31.28 0.23 30.55-0.15 30.35-0.85L30.35-0.85 23.5-25.65 16.3-0.1Q14.6 0.6 13.3 0.6L13.3 0.6Q10.65 0.6 10.3-0.85L10.3-0.85 2.2-31.8Q1.8-33.35 0.95-34.3L0.95-34.3Q1.9-35.35 3.7-35.35L3.7-35.35Q4.9-35.35 5.68-34.9 6.45-34.45 6.65-33.55L6.65-33.55 13.85-3.3 20.8-28.35Q20.95-29.05 20.95-29.6L20.95-29.6Q20.95-30.35 20.65-31.05L20.65-31.05Q21.3-31.4 22.23-31.6 23.15-31.8 23.85-31.8L23.85-31.8Q24.7-31.8 25.3-31.53 25.9-31.25 26.1-30.7L26.1-30.7 33.7-3.3 40.25-31.8Q40.3-32.05 40.43-32.6 40.55-33.15 40.55-33.55L40.55-33.55Q40.55-34.3 40.2-34.8L40.2-34.8Q41.35-35.25 42.6-35.25L42.6-35.25ZM60.2 0.65Q54.7 0.65 51.62-2.88 48.55-6.4 48.55-12.7L48.55-12.7Q48.55-19.05 51.62-22.6 54.7-26.15 60.2-26.15L60.2-26.15Q65.7-26.15 68.75-22.6 71.8-19.05 71.8-12.7L71.8-12.7Q71.8-6.4 68.75-2.88 65.7 0.65 60.2 0.65L60.2 0.65ZM60.2-1.25Q63.5-1.25 65.22-4.2 66.95-7.15 66.95-12.7L66.95-12.7Q66.95-18.35 65.22-21.3 63.5-24.25 60.2-24.25L60.2-24.25Q56.85-24.25 55.12-21.3 53.4-18.35 53.4-12.7L53.4-12.7Q53.4-7.15 55.12-4.2 56.85-1.25 60.2-1.25L60.2-1.25ZM89.1-26.15Q91.7-26.15 93.32-24.73 94.95-23.3 94.95-20.85L94.95-20.85Q94.95-19.1 93.95-18 92.95-16.9 91.55-16.9L91.55-16.9Q90.3-16.9 89.75-17.55L89.75-17.55Q90.3-18.4 90.5-19.1 90.7-19.8 90.7-20.75L90.7-20.75Q90.7-23.75 87.95-23.75L87.95-23.75Q85.8-23.75 84.37-20.85 82.95-17.95 82.95-12L82.95-12Q82.95-5.85 83.05-3.93 83.15-2 83.7-0.55L83.7-0.55Q83.3-0.15 82.62 0.15 81.95 0.45 81.05 0.5L81.05 0.5Q79.95 0.5 79.2-0.23 78.45-0.95 78.45-2.2L78.45-2.2 78.45-20.05Q78.45-21.4 78.12-22 77.8-22.6 77.05-22.6L77.05-22.6Q76.1-22.6 75.75-21.9L75.75-21.9Q75.15-22.75 75.15-23.55L75.15-23.55Q75.15-24.7 76-25.4 76.85-26.1 78.35-26.1L78.35-26.1Q80.35-26.1 81.42-24.68 82.5-23.25 82.45-20.5L82.45-20.5Q83.3-23.25 85-24.7 86.7-26.15 89.1-26.15L89.1-26.15ZM105.14 0.5Q102.79 0.5 101.47-1.05 100.14-2.6 100.14-5.35L100.14-5.35 100.14-34.05Q100.14-35.25 100.87-35.9 101.59-36.55 102.79-36.55L102.79-36.55Q104.34-36.55 105.39-35.5L105.39-35.5Q104.94-34.05 104.82-32 104.69-29.95 104.69-25.75L104.69-25.75 104.64-5.65Q104.64-3 106.54-3L106.54-3Q107.09-3 107.59-3.25 108.09-3.5 108.29-3.95L108.29-3.95Q108.89-3.15 108.89-2.25L108.89-2.25Q108.89-1.05 107.79-0.28 106.69 0.5 105.14 0.5L105.14 0.5ZM136.74-3.8Q137.29-3 137.29-2.1L137.29-2.1Q137.29-1 136.34-0.3 135.39 0.4 133.94 0.4L133.94 0.4Q129.69 0.4 129.54-6.15L129.54-6.15Q128.39-2.9 126.17-1.13 123.94 0.65 120.74 0.65L120.74 0.65Q116.04 0.65 114.07-2.88 112.09-6.4 112.09-11.6L112.09-11.6Q112.09-18.5 114.84-22.33 117.59-26.15 122.64-26.15L122.64-26.15Q125.14-26.15 126.87-25.15 128.59-24.15 129.34-22.35L129.34-22.35 129.34-28.15Q129.34-32.8 128.59-35.5L128.59-35.5Q129.64-36.55 131.19-36.55L131.19-36.55Q132.34-36.55 133.09-35.88 133.84-35.2 133.84-34.05L133.84-34.05 133.79-5.65Q133.79-3.05 135.39-3.05L135.39-3.05Q136.34-3.05 136.74-3.8L136.74-3.8ZM121.99-2.05Q124.24-2.05 125.92-3.85 127.59-5.65 128.44-8.7 129.29-11.75 129.29-15.35L129.29-15.35Q129.29-23.6 123.49-23.6L123.49-23.6Q120.29-23.6 118.62-20.58 116.94-17.55 116.94-11.75L116.94-11.75Q116.94-7.25 117.99-4.65 119.04-2.05 121.99-2.05L121.99-2.05Z" opacity="1" transform="matrix(1,0,0,1,0,0)" fill="#d62828" class="undefined-yy-1" data-fill-palette-color="secondary"></path></svg></g></svg></g></svg></g><g transform="matrix(1,0,0,1,61.4736265653284,68.9716272)"><svg viewBox="0 0 198.9041948553558 10.287908310125342" height="10.287908310125342" width="198.9041948553558"><g transform="matrix(1,0,0,1,0,0)"><svg width="198.9041948553558" viewBox="0.45 -36.5 715.28 37" height="10.287908310125342" data-palette-color="#d62828"><path d="M23.4-19.85L17.25-35.3 21.5-35.3 26.2-22.95 30.95-35.3 35.2-35.3 29.05-19.85 35.15-5.2 47.15-35.5 52.05-35.5 37.2 0 33.3 0 26.25-16.75 19.15 0 15.25 0 0.45-35.5 5.3-35.5 17.35-5.2 23.4-19.85ZM64.15 0.5L64.15 0.5Q61.2 0.5 58.77-0.58 56.35-1.65 54.57-3.53 52.8-5.4 51.82-7.85 50.85-10.3 50.85-13.05L50.85-13.05Q50.85-16.75 52.55-19.8 54.25-22.85 57.27-24.7 60.3-26.55 64.2-26.55L64.2-26.55Q68.15-26.55 71.07-24.68 74-22.8 75.62-19.78 77.25-16.75 77.25-13.25L77.25-13.25Q77.25-12.75 77.22-12.28 77.2-11.8 77.15-11.55L77.15-11.55 55.5-11.55Q55.7-9 56.92-7.03 58.15-5.05 60.1-3.93 62.05-2.8 64.3-2.8L64.3-2.8Q66.7-2.8 68.82-4 70.95-5.2 71.75-7.15L71.75-7.15 75.55-6.1Q74.7-4.2 73.02-2.7 71.35-1.2 69.07-0.35 66.8 0.5 64.15 0.5ZM55.35-14.6L55.35-14.6 73.15-14.6Q72.95-17.15 71.7-19.1 70.45-21.05 68.5-22.15 66.55-23.25 64.2-23.25L64.2-23.25Q61.9-23.25 59.95-22.15 58-21.05 56.77-19.1 55.55-17.15 55.35-14.6ZM99.99 0L95.49 0 95.49-35.5 110.29-35.5Q112.64-35.5 114.59-34.52 116.54-33.55 117.99-31.93 119.44-30.3 120.24-28.28 121.04-26.25 121.04-24.15L121.04-24.15Q121.04-21.25 119.74-18.63 118.44-16 116.09-14.38 113.74-12.75 110.59-12.75L110.59-12.75 99.99-12.75 99.99 0ZM99.99-31.5L99.99-16.75 110.34-16.75Q112.19-16.75 113.57-17.75 114.94-18.75 115.72-20.45 116.49-22.15 116.49-24.15L116.49-24.15Q116.49-26.25 115.59-27.93 114.69-29.6 113.24-30.55 111.79-31.5 110.04-31.5L110.04-31.5 99.99-31.5ZM139.74-26.25L139.74-22.25Q136.44-22.2 133.92-20.58 131.39-18.95 130.34-16.1L130.34-16.1 130.34 0 125.94 0 125.94-26.1 130.04-26.1 130.04-20.05Q131.39-22.75 133.62-24.43 135.84-26.1 138.29-26.3L138.29-26.3Q138.79-26.3 139.14-26.3 139.49-26.3 139.74-26.25L139.74-26.25ZM154.89 0.5L154.89 0.5Q151.94 0.5 149.54-0.58 147.14-1.65 145.39-3.53 143.64-5.4 142.69-7.85 141.74-10.3 141.74-13L141.74-13Q141.74-15.75 142.69-18.2 143.64-20.65 145.39-22.53 147.14-24.4 149.56-25.48 151.99-26.55 154.94-26.55L154.94-26.55Q157.84-26.55 160.24-25.48 162.64-24.4 164.41-22.53 166.19-20.65 167.14-18.2 168.09-15.75 168.09-13L168.09-13Q168.09-10.3 167.14-7.85 166.19-5.4 164.44-3.53 162.69-1.65 160.26-0.58 157.84 0.5 154.89 0.5ZM146.24-12.95L146.24-12.95Q146.24-10.25 147.41-8.05 148.59-5.85 150.54-4.58 152.49-3.3 154.89-3.3L154.89-3.3Q157.29-3.3 159.26-4.6 161.24-5.9 162.41-8.13 163.59-10.35 163.59-13.05L163.59-13.05Q163.59-15.75 162.41-17.95 161.24-20.15 159.26-21.45 157.29-22.75 154.89-22.75L154.89-22.75Q152.49-22.75 150.54-21.43 148.59-20.1 147.41-17.9 146.24-15.7 146.24-12.95ZM184.84 0L180.04 0 169.79-26.1 174.39-26.1 182.59-4.2 190.79-26.1 195.09-26.1 184.84 0ZM203.88 0L199.48 0 199.48-26.1 203.88-26.1 203.88 0ZM203.88-31L199.48-31 199.48-36.5 203.88-36.5 203.88-31ZM209.28-13L209.28-13Q209.28-16.7 210.81-19.78 212.33-22.85 215.01-24.7 217.68-26.55 221.13-26.55L221.13-26.55Q224.28-26.55 226.78-24.9 229.28-23.25 230.68-20.9L230.68-20.9 230.68-36.5 235.08-36.5 235.08-5Q235.08-4.2 235.41-3.83 235.73-3.45 236.48-3.4L236.48-3.4 236.48 0Q235.23 0.2 234.53 0.2L234.53 0.2Q233.23 0.2 232.26-0.7 231.28-1.6 231.28-2.7L231.28-2.7 231.28-4.9Q229.73-2.4 227.13-0.95 224.53 0.5 221.73 0.5L221.73 0.5Q219.03 0.5 216.76-0.58 214.48-1.65 212.81-3.55 211.13-5.45 210.21-7.88 209.28-10.3 209.28-13ZM230.68-9.15L230.68-9.15 230.68-16.65Q230.08-18.35 228.73-19.73 227.38-21.1 225.71-21.93 224.03-22.75 222.38-22.75L222.38-22.75Q220.43-22.75 218.86-21.93 217.28-21.1 216.16-19.73 215.03-18.35 214.43-16.6 213.83-14.85 213.83-12.95L213.83-12.95Q213.83-11 214.51-9.25 215.18-7.5 216.41-6.15 217.63-4.8 219.26-4.05 220.88-3.3 222.78-3.3L222.78-3.3Q223.98-3.3 225.26-3.75 226.53-4.2 227.68-5 228.83-5.8 229.63-6.88 230.43-7.95 230.68-9.15ZM253.98 0.5L253.98 0.5Q251.03 0.5 248.6-0.58 246.18-1.65 244.4-3.53 242.63-5.4 241.65-7.85 240.68-10.3 240.68-13.05L240.68-13.05Q240.68-16.75 242.38-19.8 244.08-22.85 247.1-24.7 250.13-26.55 254.03-26.55L254.03-26.55Q257.98-26.55 260.9-24.68 263.83-22.8 265.45-19.78 267.08-16.75 267.08-13.25L267.08-13.25Q267.08-12.75 267.05-12.28 267.03-11.8 266.98-11.55L266.98-11.55 245.33-11.55Q245.53-9 246.75-7.03 247.98-5.05 249.93-3.93 251.88-2.8 254.13-2.8L254.13-2.8Q256.53-2.8 258.65-4 260.78-5.2 261.58-7.15L261.58-7.15 265.38-6.1Q264.53-4.2 262.85-2.7 261.18-1.2 258.9-0.35 256.63 0.5 253.98 0.5ZM245.18-14.6L245.18-14.6 262.98-14.6Q262.78-17.15 261.53-19.1 260.28-21.05 258.33-22.15 256.38-23.25 254.03-23.25L254.03-23.25Q251.73-23.25 249.78-22.15 247.83-21.05 246.6-19.1 245.38-17.15 245.18-14.6ZM312.57-9.15L312.57-9.15Q312.57-6.4 311.17-4.35 309.77-2.3 307.4-1.15 305.02 0 302.17 0L302.17 0 285.32 0 285.32-35.5 302.97-35.5Q305.47-35.5 307.3-34.18 309.12-32.85 310.1-30.78 311.07-28.7 311.07-26.45L311.07-26.45Q311.07-23.85 309.75-21.58 308.42-19.3 305.97-18.2L305.97-18.2Q309.02-17.3 310.8-14.88 312.57-12.45 312.57-9.15ZM308.02-9.95L308.02-9.95Q308.02-11.6 307.3-13 306.57-14.4 305.35-15.25 304.12-16.1 302.52-16.1L302.52-16.1 289.82-16.1 289.82-3.9 302.17-3.9Q303.82-3.9 305.15-4.75 306.47-5.6 307.25-6.98 308.02-8.35 308.02-9.95ZM301.42-31.6L289.82-31.6 289.82-19.75 301.12-19.75Q302.72-19.75 303.95-20.55 305.17-21.35 305.9-22.7 306.62-24.05 306.62-25.65L306.62-25.65Q306.62-27.35 305.95-28.68 305.27-30 304.1-30.8 302.92-31.6 301.42-31.6L301.42-31.6ZM329.72 0.5L329.72 0.5Q326.77 0.5 324.35-0.58 321.92-1.65 320.15-3.53 318.37-5.4 317.4-7.85 316.42-10.3 316.42-13.05L316.42-13.05Q316.42-16.75 318.12-19.8 319.82-22.85 322.85-24.7 325.87-26.55 329.77-26.55L329.77-26.55Q333.72-26.55 336.65-24.68 339.57-22.8 341.2-19.78 342.82-16.75 342.82-13.25L342.82-13.25Q342.82-12.75 342.8-12.28 342.77-11.8 342.72-11.55L342.72-11.55 321.07-11.55Q321.27-9 322.5-7.03 323.72-5.05 325.67-3.93 327.62-2.8 329.87-2.8L329.87-2.8Q332.27-2.8 334.4-4 336.52-5.2 337.32-7.15L337.32-7.15 341.12-6.1Q340.27-4.2 338.6-2.7 336.92-1.2 334.65-0.35 332.37 0.5 329.72 0.5ZM320.92-14.6L320.92-14.6 338.72-14.6Q338.52-17.15 337.27-19.1 336.02-21.05 334.07-22.15 332.12-23.25 329.77-23.25L329.77-23.25Q327.47-23.25 325.52-22.15 323.57-21.05 322.35-19.1 321.12-17.15 320.92-14.6ZM356.67 0.5L356.67 0.5Q353.42 0.5 350.57-0.58 347.72-1.65 345.67-3.8L345.67-3.8 347.37-6.9Q349.62-4.8 351.87-3.9 354.12-3 356.47-3L356.47-3Q359.17-3 360.87-4.03 362.57-5.05 362.57-7.05L362.57-7.05Q362.57-8.5 361.69-9.2 360.82-9.9 359.22-10.38 357.62-10.85 355.42-11.45L355.42-11.45Q352.72-12.25 350.87-13.15 349.02-14.05 348.07-15.4 347.12-16.75 347.12-18.8L347.12-18.8Q347.12-21.3 348.42-23.03 349.72-24.75 351.99-25.65 354.27-26.55 357.17-26.55L357.17-26.55Q360.07-26.55 362.42-25.65 364.77-24.75 366.47-23L366.47-23 364.47-19.95Q362.92-21.55 361.07-22.33 359.22-23.1 356.92-23.1L356.92-23.1Q355.57-23.1 354.27-22.78 352.97-22.45 352.12-21.63 351.27-20.8 351.27-19.3L351.27-19.3Q351.27-18.05 351.94-17.32 352.62-16.6 353.94-16.1 355.27-15.6 357.17-15L357.17-15Q360.12-14.15 362.29-13.3 364.47-12.45 365.67-11.1 366.87-9.75 366.87-7.35L366.87-7.35Q366.87-3.65 364.07-1.58 361.27 0.5 356.67 0.5ZM384.57-4.8L385.62-1.3Q385.07-1.05 384.12-0.65 383.17-0.25 381.92 0.05 380.67 0.35 379.27 0.35L379.27 0.35Q377.67 0.35 376.32-0.23 374.97-0.8 374.17-2.02 373.37-3.25 373.37-5.1L373.37-5.1 373.37-22.65 369.82-22.65 369.82-26.1 373.37-26.1 373.37-34.8 377.77-34.8 377.77-26.1 383.62-26.1 383.62-22.65 377.77-22.65 377.77-6.45Q377.87-5.05 378.72-4.38 379.57-3.7 380.72-3.7L380.72-3.7Q382.02-3.7 383.12-4.15 384.22-4.6 384.57-4.8L384.57-4.8ZM420.46-19.85L414.31-35.3 418.56-35.3 423.26-22.95 428.01-35.3 432.26-35.3 426.11-19.85 432.21-5.2 444.21-35.5 449.11-35.5 434.26 0 430.36 0 423.31-16.75 416.21 0 412.31 0 397.51-35.5 402.36-35.5 414.41-5.2 420.46-19.85ZM461.21 0.5L461.21 0.5Q458.26 0.5 455.83-0.58 453.41-1.65 451.63-3.53 449.86-5.4 448.88-7.85 447.91-10.3 447.91-13.05L447.91-13.05Q447.91-16.75 449.61-19.8 451.31-22.85 454.33-24.7 457.36-26.55 461.26-26.55L461.26-26.55Q465.21-26.55 468.13-24.68 471.06-22.8 472.68-19.78 474.31-16.75 474.31-13.25L474.31-13.25Q474.31-12.75 474.28-12.28 474.26-11.8 474.21-11.55L474.21-11.55 452.56-11.55Q452.76-9 453.98-7.03 455.21-5.05 457.16-3.93 459.11-2.8 461.36-2.8L461.36-2.8Q463.76-2.8 465.88-4 468.01-5.2 468.81-7.15L468.81-7.15 472.61-6.1Q471.76-4.2 470.08-2.7 468.41-1.2 466.13-0.35 463.86 0.5 461.21 0.5ZM452.41-14.6L452.41-14.6 470.21-14.6Q470.01-17.15 468.76-19.1 467.51-21.05 465.56-22.15 463.61-23.25 461.26-23.25L461.26-23.25Q458.96-23.25 457.01-22.15 455.06-21.05 453.83-19.1 452.61-17.15 452.41-14.6ZM492.61 0.5L492.61 0.5Q489.56 0.5 487.06-1 484.56-2.5 483.11-4.9L483.11-4.9 483.11 0 479.21 0 479.21-36.5 483.61-36.5 483.61-20.9Q485.26-23.45 487.66-25 490.06-26.55 493.26-26.55L493.26-26.55Q495.96-26.55 498.11-25.43 500.26-24.3 501.78-22.38 503.31-20.45 504.13-18.03 504.96-15.6 504.96-12.95L504.96-12.95Q504.96-10.2 504.03-7.78 503.11-5.35 501.41-3.48 499.71-1.6 497.48-0.55 495.26 0.5 492.61 0.5ZM491.51-3.3L491.51-3.3Q493.46-3.3 495.11-4.1 496.76-4.9 497.96-6.25 499.16-7.6 499.81-9.35 500.46-11.1 500.46-12.95L500.46-12.95Q500.46-15.5 499.38-17.75 498.31-20 496.38-21.38 494.46-22.75 491.91-22.75L491.91-22.75Q490.06-22.75 488.46-21.9 486.86-21.05 485.63-19.68 484.41-18.3 483.61-16.65L483.61-16.65 483.61-9.1Q483.86-7.85 484.66-6.8 485.46-5.75 486.61-4.98 487.76-4.2 489.03-3.75 490.31-3.3 491.51-3.3ZM546.65-31.7L544.55-28.05Q543.95-28.75 542.95-29.4 541.95-30.05 540.7-30.58 539.45-31.1 537.98-31.43 536.5-31.75 534.9-31.75L534.9-31.75Q530.8-31.75 528.85-30.2 526.9-28.65 526.9-25.95L526.9-25.95Q526.9-24.05 527.9-22.95 528.9-21.85 530.98-21.15 533.05-20.45 536.25-19.7L536.25-19.7Q539.95-18.9 542.65-17.75 545.35-16.6 546.8-14.68 548.25-12.75 548.25-9.55L548.25-9.55Q548.25-7 547.28-5.13 546.3-3.25 544.55-2.02 542.8-0.8 540.45-0.23 538.1 0.35 535.35 0.35L535.35 0.35Q532.65 0.35 530.08-0.23 527.5-0.8 525.2-1.9 522.9-3 520.9-4.65L520.9-4.65 523.05-8.45Q523.85-7.6 525.13-6.78 526.4-5.95 528.03-5.25 529.65-4.55 531.55-4.13 533.45-3.7 535.45-3.7L535.45-3.7Q539.25-3.7 541.35-5.08 543.45-6.45 543.45-9.1L543.45-9.1Q543.45-11.1 542.28-12.3 541.1-13.5 538.8-14.3 536.5-15.1 533.2-15.9L533.2-15.9Q529.6-16.8 527.15-17.88 524.7-18.95 523.48-20.7 522.25-22.45 522.25-25.25L522.25-25.25Q522.25-28.65 523.9-31 525.55-33.35 528.45-34.55 531.35-35.75 535-35.75L535-35.75Q537.4-35.75 539.48-35.25 541.55-34.75 543.35-33.85 545.15-32.95 546.65-31.7L546.65-31.7ZM565 0.5L565 0.5Q562.05 0.5 559.62-0.58 557.2-1.65 555.42-3.53 553.65-5.4 552.67-7.85 551.7-10.3 551.7-13.05L551.7-13.05Q551.7-16.75 553.4-19.8 555.1-22.85 558.12-24.7 561.15-26.55 565.05-26.55L565.05-26.55Q569-26.55 571.92-24.68 574.85-22.8 576.47-19.78 578.1-16.75 578.1-13.25L578.1-13.25Q578.1-12.75 578.07-12.28 578.05-11.8 578-11.55L578-11.55 556.35-11.55Q556.55-9 557.77-7.03 559-5.05 560.95-3.93 562.9-2.8 565.15-2.8L565.15-2.8Q567.55-2.8 569.67-4 571.8-5.2 572.6-7.15L572.6-7.15 576.4-6.1Q575.55-4.2 573.87-2.7 572.2-1.2 569.92-0.35 567.65 0.5 565 0.5ZM556.2-14.6L556.2-14.6 574-14.6Q573.8-17.15 572.55-19.1 571.3-21.05 569.35-22.15 567.4-23.25 565.05-23.25L565.05-23.25Q562.75-23.25 560.8-22.15 558.85-21.05 557.62-19.1 556.4-17.15 556.2-14.6ZM596.79-26.25L596.79-22.25Q593.49-22.2 590.97-20.58 588.44-18.95 587.39-16.1L587.39-16.1 587.39 0 582.99 0 582.99-26.1 587.09-26.1 587.09-20.05Q588.44-22.75 590.67-24.43 592.89-26.1 595.34-26.3L595.34-26.3Q595.84-26.3 596.19-26.3 596.54-26.3 596.79-26.25L596.79-26.25ZM613.44 0L608.64 0 598.39-26.1 602.99-26.1 611.19-4.2 619.39-26.1 623.69-26.1 613.44 0ZM632.49 0L628.09 0 628.09-26.1 632.49-26.1 632.49 0ZM632.49-31L628.09-31 628.09-36.5 632.49-36.5 632.49-31ZM651.14 0.5L651.14 0.5Q648.19 0.5 645.76-0.58 643.34-1.65 641.56-3.55 639.79-5.45 638.81-7.9 637.84-10.35 637.84-13.1L637.84-13.1Q637.84-16.8 639.49-19.85 641.14-22.9 644.14-24.73 647.14-26.55 651.09-26.55L651.09-26.55Q654.94-26.55 657.81-24.83 660.69-23.1 662.09-20.2L662.09-20.2 657.79-18.85Q656.79-20.7 654.99-21.73 653.19-22.75 650.99-22.75L650.99-22.75Q648.59-22.75 646.61-21.5 644.64-20.25 643.49-18.07 642.34-15.9 642.34-13.1L642.34-13.1Q642.34-10.35 643.51-8.13 644.69-5.9 646.66-4.6 648.64-3.3 651.04-3.3L651.04-3.3Q652.59-3.3 654.01-3.85 655.44-4.4 656.51-5.33 657.59-6.25 657.99-7.35L657.99-7.35 662.29-6.05Q661.49-4.15 659.86-2.68 658.24-1.2 656.01-0.35 653.79 0.5 651.14 0.5ZM678.58 0.5L678.58 0.5Q675.63 0.5 673.21-0.58 670.78-1.65 669.01-3.53 667.23-5.4 666.26-7.85 665.28-10.3 665.28-13.05L665.28-13.05Q665.28-16.75 666.98-19.8 668.68-22.85 671.71-24.7 674.73-26.55 678.63-26.55L678.63-26.55Q682.58-26.55 685.51-24.68 688.43-22.8 690.06-19.78 691.68-16.75 691.68-13.25L691.68-13.25Q691.68-12.75 691.66-12.28 691.63-11.8 691.58-11.55L691.58-11.55 669.93-11.55Q670.13-9 671.36-7.03 672.58-5.05 674.53-3.93 676.48-2.8 678.73-2.8L678.73-2.8Q681.13-2.8 683.26-4 685.38-5.2 686.18-7.15L686.18-7.15 689.98-6.1Q689.13-4.2 687.46-2.7 685.78-1.2 683.51-0.35 681.23 0.5 678.58 0.5ZM669.78-14.6L669.78-14.6 687.58-14.6Q687.38-17.15 686.13-19.1 684.88-21.05 682.93-22.15 680.98-23.25 678.63-23.25L678.63-23.25Q676.33-23.25 674.38-22.15 672.43-21.05 671.21-19.1 669.98-17.15 669.78-14.6ZM705.53 0.5L705.53 0.5Q702.28 0.5 699.43-0.58 696.58-1.65 694.53-3.8L694.53-3.8 696.23-6.9Q698.48-4.8 700.73-3.9 702.98-3 705.33-3L705.33-3Q708.03-3 709.73-4.03 711.43-5.05 711.43-7.05L711.43-7.05Q711.43-8.5 710.56-9.2 709.68-9.9 708.08-10.38 706.48-10.85 704.28-11.45L704.28-11.45Q701.58-12.25 699.73-13.15 697.88-14.05 696.93-15.4 695.98-16.75 695.98-18.8L695.98-18.8Q695.98-21.3 697.28-23.03 698.58-24.75 700.86-25.65 703.13-26.55 706.03-26.55L706.03-26.55Q708.93-26.55 711.28-25.65 713.63-24.75 715.33-23L715.33-23 713.33-19.95Q711.78-21.55 709.93-22.33 708.08-23.1 705.78-23.1L705.78-23.1Q704.43-23.1 703.13-22.78 701.83-22.45 700.98-21.63 700.13-20.8 700.13-19.3L700.13-19.3Q700.13-18.05 700.81-17.32 701.48-16.6 702.81-16.1 704.13-15.6 706.03-15L706.03-15Q708.98-14.15 711.16-13.3 713.33-12.45 714.53-11.1 715.73-9.75 715.73-7.35L715.73-7.35Q715.73-3.65 712.93-1.58 710.13 0.5 705.53 0.5Z" opacity="1" transform="matrix(1,0,0,1,0,0)" fill="#d62828" class="slogan-text-1" data-fill-palette-color="secondary" id="text-1"></path></svg></g></svg></g></svg></g></svg></g></svg></g><defs></defs></svg><rect width="321.8514479860126" height="79.25953551012535" fill="none" stroke="none" visibility="hidden"></rect></g></svg></g></svg>