<?xml version="1.0" encoding="UTF-8" standalone="no"?>
<!DOCTYPE svg PUBLIC "-//W3C//DTD SVG 20010904//EN" "http://www.w3.org/TR/2001/REC-SVG-20010904/DTD/svg10.dtd">
<svg version="1.0" xmlns="http://www.w3.org/2000/svg" width="512.000000pt" height="512.000000pt" viewBox="0 0 512.000000 512.000000" preserveAspectRatio="xMidYMid meet">

<g transform="translate(0.000000,512.000000) scale(0.100000,-0.100000)" fill="#000000" stroke="none">
<path d="M4820 5099 c-35 -15 -291 -266 -1155 -1129 l-1110 -1110 -1105 1106 c-624 624 -1121 1114 -1142 1125 -69 35 -179 20 -236 -34 -64 -59 -86 -174 -48 -247 10 -19 516 -533 1124 -1142 l1107 -1108 -1107 -1107 c-1157 -1158 -1147 -1148 -1148 -1232 -1 -121 100 -222 221 -221 84 1 74 -9 1232 1148 l1107 1107 1108 -1107 c609 -608 1121 -1113 1137 -1121 107 -52 238 -8 286 97 25 54 24 136 0 184 -11 21 -501 518 -1125 1142 l-1106 1105 1110 1110 c863 864 1114 1120 1129 1155 27 59 26 114 -3 175 -27 59 -46 77 -106 104 -57 26 -113 26 -170 0z"/>
</g>
</svg>