<svg width="23" height="11" viewBox="0 0 23 11" fill="none" xmlns="http://www.w3.org/2000/svg">
<path d="M1.5 4.83333C1.13181 4.83333 0.833333 5.13181 0.833333 5.5C0.833333 5.86819 1.13181 6.16667 1.5 6.16667V4.83333ZM21.9714 5.9714C22.2318 5.71106 22.2318 5.28894 21.9714 5.0286L17.7288 0.785954C17.4684 0.525605 17.0463 0.525605 16.786 0.785954C16.5256 1.0463 16.5256 1.46841 16.786 1.72876L20.5572 5.5L16.786 9.27124C16.5256 9.53159 16.5256 9.9537 16.786 10.214C17.0463 10.4744 17.4684 10.4744 17.7288 10.214L21.9714 5.9714ZM1.5 6.16667H21.5V4.83333H1.5V6.16667Z" fill="#1F1F1F"/>
</svg>