<svg width="24" height="24" viewBox="0 0 24 24" fill="none" xmlns="http://www.w3.org/2000/svg">
<g clip-path="url(#clip0_17_6590)">
<path d="M11 7.5V11C11 13.206 9.20602 15 7.00002 15C6.44702 15 6.00002 14.553 6.00002 14C6.00002 13.447 6.44702 13 7.00002 13C8.10302 13 9.00002 12.103 9.00002 11H7.50002C6.67202 11 6.00002 10.328 6.00002 9.5V8C6.00002 6.895 6.89502 6 8.00002 6H9.50002C10.328 6 11 6.672 11 7.5ZM16.5 6H15C13.895 6 13 6.895 13 8V9.5C13 10.328 13.672 11 14.5 11H16C16 12.103 15.103 13 14 13C13.447 13 13 13.447 13 14C13 14.553 13.447 15 14 15C16.206 15 18 13.206 18 11V7.5C18 6.672 17.328 6 16.5 6ZM24 4V16C24 18.206 22.206 20 20 20H17.147L13.3 23.18C12.939 23.502 12.476 23.664 12.008 23.664C11.532 23.664 11.053 23.496 10.671 23.156L6.92202 20H3.99902C1.79302 20 -0.000976562 18.206 -0.000976562 16V4C2.34377e-05 1.794 1.79402 0 4.00002 0H20C22.206 0 24 1.794 24 4ZM22 4C22 2.897 21.103 2 20 2H4.00002C2.89702 2 2.00002 2.897 2.00002 4V16C2.00002 17.103 2.89702 18 4.00002 18H7.28802C7.52302 18 7.75202 18.083 7.93302 18.235L11.981 21.644L16.152 18.229C16.331 18.081 16.556 18 16.789 18H20.001C21.104 18 22.001 17.103 22.001 16L22 4Z" fill="white"/>
</g>
<defs>
<clipPath id="clip0_17_6590">
<rect width="24" height="24" fill="white"/>
</clipPath>
</defs>
</svg>
