<svg width="24" height="24" viewBox="0 0 24 24" fill="none" xmlns="http://www.w3.org/2000/svg">
<g clip-path="url(#clip0_26_1719)">
<path d="M19 2H5C2.24 2 0 4.24 0 7V17C0 19.76 2.24 22 5 22H19C21.76 22 24 19.76 24 17V7C24 4.24 21.76 2 19 2ZM5 4H19C20.65 4 22 5.35 22 7H2C2 5.35 3.35 4 5 4ZM19 20H5C3.35 20 2 18.65 2 17V9H22V17C22 18.65 20.65 20 19 20ZM10 12C10 12.55 9.55 13 9 13H8V17C8 17.55 7.55 18 7 18C6.45 18 6 17.55 6 17V13H5C4.45 13 4 12.55 4 12C4 11.45 4.45 11 5 11H9C9.55 11 10 11.45 10 12ZM20 12C20 12.55 19.55 13 19 13H13C12.45 13 12 12.55 12 12C12 11.45 12.45 11 13 11H19C19.55 11 20 11.45 20 12ZM20 16C20 16.55 19.55 17 19 17H13C12.45 17 12 16.55 12 16C12 15.45 12.45 15 13 15H19C19.55 15 20 15.45 20 16Z" fill="white"/>
</g>
<defs>
<clipPath id="clip0_26_1719">
<rect width="24" height="24" fill="#212121"/>
</clipPath>
</defs>
</svg>
