<svg width="24" height="24" viewBox="0 0 24 24" fill="none" xmlns="http://www.w3.org/2000/svg">
<g clip-path="url(#clip0_636_1266)">
<path d="M19.5 0H4.5C3.30693 0.00132343 2.16311 0.475854 1.31948 1.31948C0.475854 2.16311 0.00132343 3.30693 0 4.5L0 19.5C0.00132343 20.6931 0.475854 21.8369 1.31948 22.6805C2.16311 23.5241 3.30693 23.9987 4.5 24H19.5C20.6931 23.9987 21.8369 23.5241 22.6805 22.6805C23.5241 21.8369 23.9987 20.6931 24 19.5V4.5C23.9987 3.30693 23.5241 2.16311 22.6805 1.31948C21.8369 0.475854 20.6931 0.00132343 19.5 0ZM4.5 3H19.5C19.8978 3 20.2794 3.15804 20.5607 3.43934C20.842 3.72064 21 4.10218 21 4.5V19.5C21.0003 19.697 20.9615 19.8921 20.886 20.074C20.8105 20.2559 20.6997 20.4211 20.56 20.56L11.828 11.828C11.0779 11.0781 10.0607 10.6569 9 10.6569C7.93934 10.6569 6.92211 11.0781 6.172 11.828L3 15V4.5C3 4.10218 3.15804 3.72064 3.43934 3.43934C3.72064 3.15804 4.10218 3 4.5 3Z" fill="#343434"/>
<path d="M15.5005 10.001C16.8812 10.001 18.0005 8.88169 18.0005 7.50098C18.0005 6.12026 16.8812 5.00098 15.5005 5.00098C14.1198 5.00098 13.0005 6.12026 13.0005 7.50098C13.0005 8.88169 14.1198 10.001 15.5005 10.001Z" fill="#343434"/>
</g>
<defs>
<clipPath id="clip0_636_1266">
<rect width="24" height="24" fill="#212121"/>
</clipPath>
</defs>
</svg>
